{"title":"Blue Valentine [2010] 720p BRRip XviD AC3 - CODY","uid":6334615,"size":2251562613,"categoryP":"video","categoryS":"hd___movies","magnet":"?xt=urn:btih:94d344a1e979046fec80b92560df7bf551651958&amp;dn=Blue+Valentine+%5B2010%5D+720p+BRRip+XviD+AC3+-+CODY&amp;tr=udp%3A%2F%2Ftracker.openbittorrent.com%3A80&amp;tr=udp%3A%2F%2Fopen.demonii.com%3A1337&amp;tr=udp%3A%2F%2Ftracker.coppersurfer.tk%3A6969&amp;tr=udp%3A%2F%2Fexodus.desync.com%3A6969","seeders":0,"leechers":1,"uploader":"CODYBOSS1969","files":6,"time":1303416804,"description":"General\nComplete name                    : Blue Valentine [2010] 720p BRRip XviD AC3 - CODY.avi\nFormat                           : AVI\nFormat/Info                      : Audio Video Interleave\nFormat profile                   : OpenDML\nFile size                        : 2.08 GiB\nDuration                         : 1h 52mn\nOverall bit rate                 : 2 660 Kbps\nWriting application              : VirtualDubMod 1.5.10.2 (build 2540/release)\nWriting library                  : VirtualDubMod build 2540/release\n\nVideo\nID                               : 0\nFormat                           : MPEG-4 Visual\nFormat profile                   : Advanced Simple@L5\nFormat settings, BVOP            : 1\nFormat settings, QPel            : No\nFormat settings, GMC             : No warppoints\nFormat settings, Matrix          : Default (H.263)\nCodec ID                         : XVID\nCodec ID/Hint                    : XviD\nDuration                         : 1h 52mn\nBit rate                         : 2 199 Kbps\nWidth                            : 1 200 pixels\nHeight                           : 720 pixels\nDisplay aspect ratio             : 1.667\nFrame rate                       : 23.976 fps\nColor space                      : YUV\nChroma subsampling               : 4:2:0\nBit depth                        : 8 bits\nScan type                        : Progressive\nCompression mode                 : Lossy\nBits/(Pixel*Frame)               : 0.106\nStream size                      : 1.72 GiB (83%)\nWriting library                  : XviD 1.2.0.dev47 (UTC 2006-11-01)\n\nAudio\nID                               : 1\nFormat                           : AC-3\nFormat/Info                      : Audio Coding 3\nMode extension                   : CM (complete main)\nCodec ID                         : 2000\nDuration                         : 1h 52mn\nBit rate mode                    : Constant\nBit rate                         : 448 Kbps\nChannel(s)                       : 6 channels\nChannel positions                : Front: L C R, Side: L R, LFE\nSampling rate                    : 48.0 KHz\nBit depth                        : 16 bits\nCompression mode                 : Lossy\nStream size                      : 359 MiB (17%)\nAlignment                        : Aligned on interleaves\nInterleave, duration             : 64 ms (1.53 video frames)\nInterleave, preload duration     : 192 ms\n\n\n\nSubtitles included               : Romanian\n\n\n\nIMDB link:                       &lt;a href=&quot; http://www.imdb.com/title/tt1120985/&quot; rel=&quot;nofollow&quot; target=&quot;_NEW&quot;&gt; http://www.imdb.com/title/tt1120985/&lt;/a&gt;\n\n\n\nPlease seed at least 1,5:1. This way this torrent has a chance to survive !\n\n\nThanks. Enjoy !\n","torrent":{"xt":"urn:btih:94d344a1e979046fec80b92560df7bf551651958","amp;dn":"Blue+Valentine+%5B2010%5D+720p+BRRip+XviD+AC3+-+CODY","amp;tr":["udp%3A%2F%2Ftracker.openbittorrent.com%3A80","udp%3A%2F%2Fopen.demonii.com%3A1337","udp%3A%2F%2Ftracker.coppersurfer.tk%3A6969","udp%3A%2F%2Fexodus.desync.com%3A6969"],"infoHash":"94d344a1e979046fec80b92560df7bf551651958","infoHashBuffer":{"type":"Buffer","data":[148,211,68,161,233,121,4,111,236,128,185,37,96,223,123,245,81,101,25,88]},"announce":[],"urlList":[]}}